<mxfile host="app.diagrams.net" modified="2022-02-12T16:28:43.627Z" agent="5.0 (Windows NT 10.0; Win64; x64) AppleWebKit/537.36 (KHTML, like Gecko) Chrome/98.0.4758.82 Safari/537.36" etag="J7WwJuNSHjQmyPtH4m1m" version="16.5.6" type="github">
  <diagram id="7D8zkQqCxQ44CruNxlLo" name="Page-1">
    <mxGraphModel dx="1185" dy="614" grid="1" gridSize="10" guides="1" tooltips="1" connect="1" arrows="1" fold="1" page="1" pageScale="1" pageWidth="850" pageHeight="1100" background="#182E3E" math="0" shadow="0">
      <root>
        <mxCell id="0" />
        <mxCell id="1" parent="0" />
        <mxCell id="dcoc8dtlGERl8vq6PT59-14" style="edgeStyle=orthogonalEdgeStyle;rounded=0;orthogonalLoop=1;jettySize=auto;html=1;entryX=0.503;entryY=0.167;entryDx=0;entryDy=0;entryPerimeter=0;strokeColor=#FFFFFF;fontColor=#FFFFFF;labelBackgroundColor=#182E3E;" edge="1" parent="1" source="dcoc8dtlGERl8vq6PT59-1" target="dcoc8dtlGERl8vq6PT59-4">
          <mxGeometry relative="1" as="geometry" />
        </mxCell>
        <mxCell id="dcoc8dtlGERl8vq6PT59-18" style="edgeStyle=orthogonalEdgeStyle;rounded=0;orthogonalLoop=1;jettySize=auto;html=1;entryX=1;entryY=0.5;entryDx=0;entryDy=0;strokeColor=#FFFFFF;fontColor=#FFFFFF;labelBackgroundColor=#182E3E;" edge="1" parent="1" source="dcoc8dtlGERl8vq6PT59-1" target="dcoc8dtlGERl8vq6PT59-2">
          <mxGeometry relative="1" as="geometry" />
        </mxCell>
        <mxCell id="dcoc8dtlGERl8vq6PT59-19" style="edgeStyle=orthogonalEdgeStyle;rounded=0;orthogonalLoop=1;jettySize=auto;html=1;entryX=0;entryY=0.5;entryDx=0;entryDy=0;strokeColor=#FFFFFF;fontColor=#FFFFFF;labelBackgroundColor=#182E3E;" edge="1" parent="1" source="dcoc8dtlGERl8vq6PT59-1" target="dcoc8dtlGERl8vq6PT59-3">
          <mxGeometry relative="1" as="geometry" />
        </mxCell>
        <mxCell id="dcoc8dtlGERl8vq6PT59-24" style="edgeStyle=orthogonalEdgeStyle;rounded=0;orthogonalLoop=1;jettySize=auto;html=1;entryX=0.5;entryY=0;entryDx=0;entryDy=0;strokeColor=#FFFFFF;fontColor=#FFFFFF;labelBackgroundColor=#182E3E;" edge="1" parent="1" source="dcoc8dtlGERl8vq6PT59-1" target="dcoc8dtlGERl8vq6PT59-23">
          <mxGeometry relative="1" as="geometry" />
        </mxCell>
        <mxCell id="dcoc8dtlGERl8vq6PT59-1" value="Mobile Apps Itunes / Android" style="rounded=0;whiteSpace=wrap;html=1;fillColor=#b1ddf0;strokeColor=#10739e;" vertex="1" parent="1">
          <mxGeometry x="155" y="250" width="745" height="50" as="geometry" />
        </mxCell>
        <mxCell id="dcoc8dtlGERl8vq6PT59-2" value="Google Play Store" style="rounded=0;whiteSpace=wrap;html=1;fillColor=#EEEEEE;strokeColor=#FFFFFF;fontColor=#1A1A1A;" vertex="1" parent="1">
          <mxGeometry x="260" y="150" width="180" height="60" as="geometry" />
        </mxCell>
        <mxCell id="dcoc8dtlGERl8vq6PT59-3" value="iOS App Store" style="rounded=0;whiteSpace=wrap;html=1;fillColor=#EEEEEE;strokeColor=#FFFFFF;fontColor=#1A1A1A;" vertex="1" parent="1">
          <mxGeometry x="630" y="150" width="180" height="60" as="geometry" />
        </mxCell>
        <mxCell id="dcoc8dtlGERl8vq6PT59-21" style="edgeStyle=orthogonalEdgeStyle;rounded=0;orthogonalLoop=1;jettySize=auto;html=1;entryX=0.5;entryY=1;entryDx=0;entryDy=0;strokeColor=#FFFFFF;fontColor=#FFFFFF;labelBackgroundColor=#182E3E;" edge="1" parent="1" source="dcoc8dtlGERl8vq6PT59-4" target="dcoc8dtlGERl8vq6PT59-8">
          <mxGeometry relative="1" as="geometry" />
        </mxCell>
        <mxCell id="dcoc8dtlGERl8vq6PT59-4" value="&lt;b&gt;Integration Layer ( API )&lt;/b&gt;" style="rounded=0;whiteSpace=wrap;html=1;fillColor=#0050ef;strokeColor=#001DBC;fontColor=#ffffff;" vertex="1" parent="1">
          <mxGeometry x="150" y="350" width="750" height="60" as="geometry" />
        </mxCell>
        <mxCell id="dcoc8dtlGERl8vq6PT59-5" value="" style="rounded=0;whiteSpace=wrap;html=1;fillColor=#EEEEEE;strokeColor=#FFFFFF;fontColor=#1A1A1A;" vertex="1" parent="1">
          <mxGeometry x="150" y="410" width="750" height="140" as="geometry" />
        </mxCell>
        <mxCell id="dcoc8dtlGERl8vq6PT59-6" value="DATABASE" style="shape=cylinder3;whiteSpace=wrap;html=1;boundedLbl=1;backgroundOutline=1;size=15;fillColor=#dae8fc;strokeColor=#6c8ebf;gradientColor=#7ea6e0;" vertex="1" parent="1">
          <mxGeometry x="473.75" y="440" width="107.5" height="80" as="geometry" />
        </mxCell>
        <mxCell id="dcoc8dtlGERl8vq6PT59-8" value="Cloud Backend" style="rounded=0;whiteSpace=wrap;html=1;rotation=-90;fillColor=#EEEEEE;strokeColor=#FFFFFF;fontColor=#1A1A1A;" vertex="1" parent="1">
          <mxGeometry x="-180" y="350" width="430" height="60" as="geometry" />
        </mxCell>
        <mxCell id="dcoc8dtlGERl8vq6PT59-9" value="Loan Transaction" style="rounded=0;whiteSpace=wrap;html=1;fillColor=#EEEEEE;strokeColor=#FFFFFF;fontColor=#1A1A1A;" vertex="1" parent="1">
          <mxGeometry x="170" y="440" width="100" height="20" as="geometry" />
        </mxCell>
        <mxCell id="dcoc8dtlGERl8vq6PT59-10" value="User Login" style="rounded=0;whiteSpace=wrap;html=1;fillColor=#EEEEEE;strokeColor=#FFFFFF;fontColor=#1A1A1A;" vertex="1" parent="1">
          <mxGeometry x="170" y="470" width="70" height="20" as="geometry" />
        </mxCell>
        <mxCell id="dcoc8dtlGERl8vq6PT59-11" value="Roles/Permission" style="rounded=0;whiteSpace=wrap;html=1;fillColor=#EEEEEE;strokeColor=#FFFFFF;fontColor=#1A1A1A;" vertex="1" parent="1">
          <mxGeometry x="170" y="500" width="110" height="20" as="geometry" />
        </mxCell>
        <mxCell id="dcoc8dtlGERl8vq6PT59-12" value="Photo /BLOB" style="rounded=0;whiteSpace=wrap;html=1;fillColor=#EEEEEE;strokeColor=#FFFFFF;fontColor=#1A1A1A;" vertex="1" parent="1">
          <mxGeometry x="780" y="440" width="110" height="20" as="geometry" />
        </mxCell>
        <mxCell id="dcoc8dtlGERl8vq6PT59-13" value="PDF Agreement" style="rounded=0;whiteSpace=wrap;html=1;fillColor=#EEEEEE;strokeColor=#FFFFFF;fontColor=#1A1A1A;" vertex="1" parent="1">
          <mxGeometry x="780" y="470" width="110" height="20" as="geometry" />
        </mxCell>
        <mxCell id="dcoc8dtlGERl8vq6PT59-17" value="&lt;div style=&quot;text-align: center&quot;&gt;&lt;span&gt;&lt;font face=&quot;helvetica&quot; color=&quot;#ffffff&quot;&gt;Client Deploy&lt;/font&gt;&lt;/span&gt;&lt;/div&gt;" style="text;whiteSpace=wrap;html=1;fontColor=#1A1A1A;" vertex="1" parent="1">
          <mxGeometry x="482.5" y="150" width="90" height="30" as="geometry" />
        </mxCell>
        <mxCell id="dcoc8dtlGERl8vq6PT59-20" value="&lt;div style=&quot;text-align: center&quot;&gt;&lt;span&gt;&lt;font face=&quot;helvetica&quot; color=&quot;#ffffff&quot;&gt;REST API&lt;/font&gt;&lt;/span&gt;&lt;/div&gt;" style="text;whiteSpace=wrap;html=1;fontColor=#1A1A1A;" vertex="1" parent="1">
          <mxGeometry x="540" y="310" width="90" height="30" as="geometry" />
        </mxCell>
        <mxCell id="dcoc8dtlGERl8vq6PT59-22" value="&lt;div style=&quot;text-align: center&quot;&gt;&lt;span style=&quot;background-color: rgb(255 , 255 , 255)&quot;&gt;&lt;font face=&quot;helvetica&quot;&gt;PAYMENT&lt;/font&gt;&lt;/span&gt;&lt;/div&gt;" style="text;whiteSpace=wrap;html=1;fontColor=#1A1A1A;" vertex="1" parent="1">
          <mxGeometry x="80" y="350" width="90" height="30" as="geometry" />
        </mxCell>
        <mxCell id="dcoc8dtlGERl8vq6PT59-23" value="OTP" style="rounded=0;whiteSpace=wrap;html=1;rotation=-90;fillColor=#EEEEEE;strokeColor=#FFFFFF;fontColor=#1A1A1A;" vertex="1" parent="1">
          <mxGeometry x="830" y="340" width="380" height="60" as="geometry" />
        </mxCell>
        <mxCell id="dcoc8dtlGERl8vq6PT59-25" value="&lt;div style=&quot;text-align: center&quot;&gt;&lt;span&gt;&lt;font face=&quot;helvetica&quot; color=&quot;#ffffff&quot;&gt;OTP Veirification&lt;/font&gt;&lt;/span&gt;&lt;/div&gt;" style="text;whiteSpace=wrap;html=1;" vertex="1" parent="1">
          <mxGeometry x="900" y="240" width="90" height="30" as="geometry" />
        </mxCell>
      </root>
    </mxGraphModel>
  </diagram>
</mxfile>
